<?xml version="1.0" encoding="utf-8"?>
<!-- Generator: Adobe Illustrator 25.1.0, SVG Export Plug-In . SVG Version: 6.00 Build 0)  -->
<svg version="1.1" id="Calque_1" xmlns="http://www.w3.org/2000/svg" xmlns:xlink="http://www.w3.org/1999/xlink" x="0px" y="0px"
	 viewBox="0 0 512 512" style="enable-background:new 0 0 512 512;" xml:space="preserve">
<style type="text/css">
	.st0{fill:#FF8383;}
</style>
<path class="st0" d="M256,470.4c-6.9,0-13.5-2.5-18.6-7c-19.5-17-38.2-33-54.8-47.1l-0.1-0.1C133.9,374.8,92,339.1,62.8,303.9
	C30.2,264.5,15,227.2,15,186.4c0-39.6,13.6-76.1,38.2-102.9c25-27.1,59.2-42,96.4-42c27.8,0,53.3,8.8,75.7,26.1
	c11.3,8.8,21.6,19.5,30.6,32c9-12.5,19.3-23.2,30.6-32c22.4-17.3,47.9-26.1,75.7-26.1c37.2,0,71.5,14.9,96.4,42
	c24.7,26.7,38.2,63.3,38.2,102.9c0,40.8-15.2,78.1-47.8,117.4c-29.2,35.2-71.1,70.9-119.7,112.3c-16.6,14.1-35.4,30.2-54.9,47.2
	C269.5,467.9,262.9,470.4,256,470.4z M149.6,69.8c-29.2,0-56.1,11.7-75.7,32.9c-19.8,21.5-30.8,51.3-30.8,83.8
	c0,34.3,12.7,64.9,41.3,99.4c27.6,33.3,68.7,68.3,116.2,108.9l0.1,0.1c16.6,14.2,35.5,30.2,55.1,47.4c19.7-17.2,38.6-33.3,55.3-47.5
	c47.6-40.5,88.6-75.5,116.2-108.8c28.6-34.5,41.3-65.1,41.3-99.4c0-32.5-10.9-62.2-30.8-83.8c-19.5-21.2-46.4-32.9-75.7-32.9
	c-21.4,0-41.1,6.8-58.5,20.2c-15.5,12-26.3,27.1-32.6,37.7c-3.3,5.4-9,8.7-15.3,8.7c-6.3,0-12.1-3.3-15.3-8.7
	c-6.3-10.6-17.1-25.7-32.6-37.7C190.7,76.6,171.1,69.8,149.6,69.8z"/>
</svg>
