<?xml version="1.0" encoding="utf-8"?>
<!-- Generator: Adobe Illustrator 25.1.0, SVG Export Plug-In . SVG Version: 6.00 Build 0)  -->
<svg version="1.1" id="Layer_1" xmlns="http://www.w3.org/2000/svg" xmlns:xlink="http://www.w3.org/1999/xlink" x="0px" y="0px"
	 viewBox="0 0 512 512" style="enable-background:new 0 0 512 512;" xml:space="preserve">
<style type="text/css">
	.st0{fill:#53D5BB;}
</style>
<path class="st0" d="M507.5,208.2h-107H261.6v101.3h136.9c-12.3,32.9-35.7,60.4-65.6,77.9l0,0l0,0c-22.5,13.2-48.8,20.8-76.9,20.8
	c-65.3,0-120.9-41.1-142.5-98.8l0,0l0,0c-6.2-16.6-9.6-34.6-9.7-53.4c0-17.3,2.9-34,8.2-49.5l0,0l0,0
	c20.5-59.8,77.2-102.7,144-102.7c29.6,0,57.1,8.4,80.5,23l82.9-67.9C375.1,22.1,318.1,0,256,0C157.1,0,71.2,56.1,28.6,138.3
	C10.3,173.5,0,213.5,0,256c0,43.9,11,85.2,30.5,121.3h0l0,0C73.7,457.5,158.5,512,256,512c60.7,0,116.4-21.1,160.3-56.4l0,0l0,0l0,0
	l0,0c45.1-36.3,77.7-87.5,90.1-146.2c3.7-17.2,5.6-35.1,5.6-53.5C512,239.7,510.5,223.7,507.5,208.2z"/>
</svg>
