<?xml version="1.0" encoding="utf-8"?>
<!-- Generator: Adobe Illustrator 25.1.0, SVG Export Plug-In . SVG Version: 6.00 Build 0)  -->
<svg version="1.1" id="Layer_1" xmlns="http://www.w3.org/2000/svg" xmlns:xlink="http://www.w3.org/1999/xlink" x="0px" y="0px"
	 viewBox="0 0 512 512" style="enable-background:new 0 0 512 512;" xml:space="preserve">
<style type="text/css">
	.st0{fill:#53D5BB;}
</style>
<g id="twitter" transform="translate(0 -48)">
	<g id="Groupe_148" transform="translate(0 48)">
		<path id="Tracé_145" class="st0" d="M507.8,107.7c-16.7,7.3-34.3,12.1-52.4,14.4c19-11.3,33.2-29.2,39.9-50.3
			c-17.8,10.6-37.3,18-57.7,22c-34.3-36.7-91.9-38.5-128.6-4.2c-18.4,17.2-28.8,41.2-28.8,66.4c-0.1,7,0.6,13.9,2.1,20.7
			c-73.2-3.6-141.3-38.2-187.4-95.1c-24.3,41.5-12,94.8,28,121.6c-14.4-0.4-28.5-4.2-41.1-11.2v1c0.1,43.3,30.5,80.6,72.9,89.4
			c-7.8,2.1-15.8,3.1-23.8,3c-5.8,0.1-11.6-0.4-17.2-1.5c12,37,46.1,62.4,85,63.4C166.4,372.4,126.7,386,85.9,386
			c-7.3,0-14.6-0.4-21.8-1.3c41.6,26.8,90.1,41,139.6,40.8c167.5,0,258.9-138.7,258.9-258.9c0-4-0.1-7.9-0.3-11.8
			C480.1,142.1,495.6,126.1,507.8,107.7z"/>
	</g>
</g>
</svg>
